<?xml version="1.0" ?><svg id="Layer_1" style="enable-background:new 0 0 512 512;" version="1.1" viewBox="0 0 512 512" xml:space="preserve" xmlns="http://www.w3.org/2000/svg" xmlns:xlink="http://www.w3.org/1999/xlink"><style type="text/css">
	.st0{fill:#FFDBD4;}
	.st1{fill:#BF6149;}
	.st2{fill:#A84835;}
	.st3{fill:#FFFFFF;}
</style><g id="XMLID_4_"><g id="XMLID_46_"><polygon class="st0" id="XMLID_50_" points="330.7,6 87.9,6 87.9,506 449.2,506 449.2,122.8   "/><polygon class="st1" id="XMLID_49_" points="330.7,6 449.2,122.8 330.7,122.8   "/><rect class="st1" height="156.1" id="XMLID_48_" width="329" x="62.8" y="298.8"/><polygon class="st2" id="XMLID_47_" points="62.8,454.9 87.9,476.1 87.9,454.9   "/></g><g id="XMLID_799_"><path class="st3" d="M114.3,389c0-8,1.7-14.5,5.2-19.4c3.5-4.9,8.4-7.4,14.8-7.4c2.4,0,4.5,0.5,6.4,1.6    c1.9,1.1,3.6,2.6,5.1,4.7v-28h16v74h-14l-1.1-6.3c-1.5,2.3-3.4,4.1-5.4,5.4c-2.1,1.2-4.5,1.9-7.1,1.9c-6.3,0-11.2-2.3-14.7-7    c-3.5-4.7-5.2-10.9-5.2-18.5V389z M130.4,390c0,4.2,0.6,7.4,1.8,9.7c1.2,2.3,3.3,3.5,6.1,3.5c1.7,0,3.2-0.3,4.4-0.9    c1.3-0.6,2.3-1.5,3.2-2.7v-20.7c-0.8-1.4-1.9-2.4-3.1-3.1c-1.3-0.7-2.7-1.1-4.4-1.1c-2.8,0-4.9,1.3-6.2,3.9    c-1.3,2.6-1.9,6.1-1.9,10.4V390z" id="XMLID_644_"/><path class="st3" d="M175.7,388.4c0-7.7,2.2-14,6.5-18.9c4.4-4.9,10.5-7.3,18.3-7.3c7.8,0,13.9,2.4,18.3,7.3    c4.4,4.9,6.5,11.1,6.5,18.9v1c0,7.7-2.2,14-6.5,18.9s-10.4,7.3-18.2,7.3c-7.9,0-14-2.4-18.4-7.3s-6.5-11.1-6.5-18.9V388.4z     M191.8,389.4c0,4.3,0.7,7.7,2,10.1c1.3,2.5,3.6,3.7,6.9,3.7c3.1,0,5.4-1.2,6.7-3.7c1.4-2.5,2-5.8,2-10.1v-1c0-4.2-0.7-7.5-2-10    c-1.4-2.5-3.6-3.8-6.8-3.8c-3.2,0-5.4,1.3-6.8,3.8c-1.3,2.5-2,5.9-2,10V389.4z" id="XMLID_647_"/><path class="st3" d="M261.2,403.2c2.2,0,3.8-0.6,4.9-1.8c1.1-1.2,1.6-2.9,1.6-5.1h14.6l0.1,0.3    c0.1,5.6-1.8,10.2-5.8,13.7c-4,3.5-9.1,5.3-15.4,5.3c-7.8,0-13.8-2.4-18-7.2c-4.2-4.8-6.3-11.1-6.3-18.9v-1.1    c0-7.7,2.1-14,6.3-18.8c4.2-4.8,10.2-7.3,18-7.3c6.5,0,11.7,1.8,15.6,5.4c3.9,3.6,5.8,8.6,5.7,14.9l-0.1,0.3h-14.6    c0-2.4-0.6-4.4-1.7-6c-1.1-1.5-2.8-2.3-4.9-2.3c-3.1,0-5.3,1.2-6.5,3.7c-1.2,2.5-1.8,5.8-1.8,10v1.1c0,4.3,0.6,7.7,1.8,10.1    C255.9,402,258.1,403.2,261.2,403.2z" id="XMLID_650_"/><path class="st3" d="M316.1,378.4h0.3l6.5-15.1h18L326,388.6l15.4,25.9h-18l-6.8-15.6h-0.3l-6.8,15.6h-18    l15.4-25.9l-14.9-25.4h17.9L316.1,378.4z" id="XMLID_652_"/></g></g></svg>