<?xml version="1.0" encoding="UTF-8"?>
<svg id="Layer_1" data-name="Layer 1" xmlns="http://www.w3.org/2000/svg" viewBox="0 0 182.37 331.1">
  <defs>
    <style>
      .cls-1 {
        fill: #1c3661;
      }

      .cls-1, .cls-2, .cls-3 {
        stroke-width: 0px;
      }

      .cls-2 {
        fill: #70b865;
      }

      .cls-3 {
        fill: #e53225;
      }
    </style>
  </defs>
  <rect class="cls-3" x="167.04" y="147.24" width="15.32" height="15.7"/>
  <rect class="cls-3" x="144.06" y="147.24" width="15.32" height="15.7"/>
  <rect class="cls-3" x="167.04" y="170.59" width="15.32" height="15.7"/>
  <rect class="cls-3" x="144.06" y="170.59" width="15.32" height="15.7"/>
  <path class="cls-2" d="M0,187.79v141.26c0,.75.19,1.31.19,2.06h79.97v-78.66h-25.6v52.88h-28.78v-106.51c0-1.49.37-2.62,1.49-3.74,8.6-8.41,17-17,25.6-25.6.37-.37.93-.75,1.87-1.49v40.73h25.41v-103.14L0,187.79h0Z"/>
  <path class="cls-1" d="M143.88,195.45v25.41c4.3.19,8.41-.19,12.71.19v84.08h-28.59c0-1.12-.19-2.06-.19-2.99V94.73c0-1.31.37-2.24,1.12-2.99,8.6-8.78,17.19-17.75,25.79-26.72.37-.37.93-.75,1.87-1.31v68.76h25.41V0c-.75.75-1.31,1.12-1.68,1.49-6.73,6.91-13.27,13.83-19.99,20.74-18.87,19.43-37.56,38.87-56.62,58.3-1.31,1.49-1.87,2.8-1.87,4.67v243.28c0,.75,0,1.49.19,2.43h79.97v-49.52h0v-86.14l-38.12.19h0Z"/>
</svg>