<?xml version="1.0" encoding="utf-8"?>
<!-- Generator: Adobe Illustrator 23.0.0, SVG Export Plug-In . SVG Version: 6.00 Build 0)  -->
<svg version="1.1" id="Layer_1" xmlns="http://www.w3.org/2000/svg" xmlns:xlink="http://www.w3.org/1999/xlink" x="0px" y="0px"
	 viewBox="0 0 558.6 568.2" style="enable-background:new 0 0 558.6 568.2;" xml:space="preserve">
<style type="text/css">
	.st0{fill:#E53225;}
	.st1{fill:#70B865;}
	.st2{fill:#1C3661;}
</style>
<g>
	<rect x="146.4" y="243.9" class="st0" width="8.2" height="8.4"/>
	<rect x="134.1" y="243.9" class="st0" width="8.2" height="8.4"/>
	<rect x="146.4" y="256.4" class="st0" width="8.2" height="8.4"/>
	<rect x="134.1" y="256.4" class="st0" width="8.2" height="8.4"/>
	<path class="st1" d="M57,265.6c0,25.2,0,50.4,0,75.6c0,0.4,0.1,0.7,0.1,1.1h42.8v-42.1H86.2v28.3H70.8c0-1.2,0-0.9,0-1.2
		c0-18.6,0-37.2,0-55.8c0-0.8,0.2-1.4,0.8-2c4.6-4.5,9.1-9.1,13.7-13.7c0.2-0.2,0.5-0.4,1-0.8v21.8h13.6v-55.2L57,265.6L57,265.6z"
		/>
	<path class="st2" d="M134,269.7v13.6c2.3,0.1,4.5-0.1,6.8,0.1v45h-15.3c0-0.6-0.1-1.1-0.1-1.6c0-16.8,0-33.6,0-50.4
		c0-20.2,0-40.4,0-60.6c0-0.7,0.2-1.2,0.6-1.6c4.6-4.7,9.2-9.5,13.8-14.3c0.2-0.2,0.5-0.4,1-0.7V236h13.6v-70.9
		c-0.4,0.4-0.7,0.6-0.9,0.8c-3.6,3.7-7.1,7.4-10.7,11.1c-10.1,10.4-20.1,20.8-30.3,31.2c-0.7,0.8-1,1.5-1,2.5c0,25.6,0,51.2,0,76.8
		c0,17.8,0,35.6,0,53.4c0,0.4,0,0.8,0.1,1.3h42.8v-26.5h0v-46.1L134,269.7L134,269.7z"/>
</g>
<g>
	<g>
		<path class="st2" d="M209.6,288h-24.4c-1.5,0-2.8-0.5-3.8-1.6c-1.1-1.1-1.6-2.3-1.6-3.8v-27.1c0-1.5,0.5-2.8,1.6-3.8
			c1.1-1.1,2.3-1.6,3.8-1.6h24.4v7.5h-21.6v22.8h21.7L209.6,288L209.6,288z"/>
		<path class="st2" d="M251.8,288h-9.3l-3.4-8.7h-15.2l-3.5,8.7h-9.2l15.2-37.9h10.3L251.8,288z M236.1,271.8l-4.6-11.6l-4.6,11.6
			H236.1z"/>
		<path class="st2" d="M285.9,282.6c0,1.5-0.5,2.8-1.6,3.8s-2.3,1.6-3.8,1.6h-27.1v-7.5h24.4v-9.9h-18.9c-1.5,0-2.8-0.5-3.8-1.6
			c-1.1-1.1-1.6-2.3-1.6-3.8v-9.7c0-1.5,0.5-2.7,1.6-3.8c1.1-1.1,2.3-1.6,3.8-1.6h27.1v7.5h-24.4v5.5h18.9c1.5,0,2.8,0.5,3.8,1.6
			c1.1,1.1,1.6,2.3,1.6,3.8V282.6L285.9,282.6z"/>
		<path class="st2" d="M328.1,288h-9.3l-3.4-8.7h-15.2l-3.5,8.7h-9.2l15.2-37.9H313L328.1,288L328.1,288z M312.4,271.8l-4.6-11.6
			l-4.6,11.6H312.4L312.4,271.8z"/>
		<path class="st2" d="M375.8,288h-27.1c-1.5,0-2.8-0.5-3.8-1.6c-1.1-1.1-1.6-2.3-1.6-3.8v-27.1c0-1.5,0.5-2.8,1.6-3.8
			c1.1-1.1,2.3-1.6,3.8-1.6h27.1v7.5h-24.4v22.8h16.2v-9.9h-10.8v-7.5h18.9L375.8,288L375.8,288z"/>
		<path class="st2" d="M411.5,288h-8.1v-17.4h-16.2V288H379v-37.9h27.1c1.5,0,2.8,0.5,3.8,1.6s1.6,2.3,1.6,3.8v6
			c0,1.5-0.5,2.8-1.6,3.8s-2.3,1.6-3.8,1.6c1.5,0,2.8,0.5,3.8,1.6s1.6,2.3,1.6,3.8L411.5,288L411.5,288z M403.4,263.1v-5.5h-16.2
			v5.5H403.4z"/>
		<path class="st2" d="M447.2,282.6c0,1.5-0.5,2.8-1.6,3.8s-2.3,1.6-3.8,1.6h-21.7c-1.5,0-2.8-0.5-3.8-1.6c-1.1-1.1-1.6-2.3-1.6-3.8
			v-27.1c0-1.5,0.5-2.8,1.6-3.8c1.1-1.1,2.3-1.6,3.8-1.6h21.7c1.5,0,2.8,0.5,3.8,1.6s1.6,2.3,1.6,3.8V282.6z M439.1,280.5v-22.8
			h-16.2v22.8H439.1z"/>
		<path class="st2" d="M482.9,282.6c0,1.5-0.5,2.8-1.6,3.8s-2.3,1.6-3.8,1.6h-21.7c-1.5,0-2.8-0.5-3.8-1.6c-1.1-1.1-1.6-2.3-1.6-3.8
			v-32.5h8.1v30.4h16.2v-30.4h8.1L482.9,282.6L482.9,282.6z"/>
		<path class="st2" d="M518.6,265.3c0,1.5-0.5,2.7-1.6,3.8c-1.1,1.1-2.3,1.6-3.8,1.6h-18.9V288h-8.1v-37.9h27.1
			c1.5,0,2.8,0.5,3.8,1.6s1.6,2.3,1.6,3.8L518.6,265.3L518.6,265.3z M510.5,263.1v-5.5h-16.2v5.5H510.5z"/>
	</g>
	<g>
		<path class="st1" d="M450.3,246.1c-2.5,0-4.7-0.8-5.5-1.6c0,0,0.1-0.4,0.6-0.4c0.7,0,1.6,0.7,2.4,0.7c7,0,12.3-13.7,11.8-13.7
			c-2.7,0-5.7,9.4-11.7,9.4c-8,0,5-21,11.5-21c7,0,1.9,9-1.4,9c0,0-1.4-1-0.7-1.7c0.7-0.7,5.6-6.2,2.5-6.2c-3.9,0-14,18.9-11,18.9
			c3.7,0,7.7-9.7,11.4-9.7C465.4,229.6,456.4,246.1,450.3,246.1L450.3,246.1z"/>
		<path class="st1" d="M485.6,230.5c-0.4,3-4.7,7.9-6.7,7.9c-1.2,0-3-0.6-3-2.1c0-2,3.2-7.9,2.4-7.9c-2.3,0-5.7,9.4-5.7,9.4
			s-3.2,0.1-3.2-1c0-2.2,3.4-8.5,2.5-8.5c-1.4,0-5.8,9.5-5.8,9.5s-2.9,0.3-2.9-1.1c0-1.3,2.9-5.2,2.9-9.5c1.6,0,2.8,0.3,2.8,2.4
			c0,0.3-0.1,0.7-0.1,1.1c1.2-2,2.6-3.9,3.9-3.9c1.7,0,2.3,1.4,2.3,3.1c0,0.2-0.1,0.5-0.1,0.9c1-1.7,2.4-3.3,4.1-3.3
			c2.1,0,2.5,1.8,2.5,3s-2.5,6.5-2,6.5c1.5,0,4.9-4,5.3-6.4L485.6,230.5L485.6,230.5z"/>
		<path class="st1" d="M494,230c0,0.6-2.1,7.7-4.6,7.7c-2.5,0-3.5-0.9-3.1-0.9c0,0,0.7-0.4,1.5-0.4s5.7-9.1,4.4-9.1
			c-2.1,0-7.5,8.4-7.5,12.6c0,0-2.5-0.8-2.5-2.9c0-4.2,8.1-16.6,9.1-17.6c0,0,1.2,0,1.2,1c0,0.6-2.4,4.5-4.5,8.9
			c1.3-1.4,2.8-2.8,3.8-2.8C494.3,226.8,494,229.4,494,230L494,230z"/>
		<path class="st1" d="M509.7,236.3c1,0.3,1.7,0.7,2,1c0,0-0.3,0.5-1.1,0.2c-0.4-0.1-0.9-0.3-1.2-0.4c-1.2,3.1-2,6-2,8.1
			c0,0-3.1-0.2-3.1-1.8s0.8-4.1,2-7.1c-1.5-0.3-2.8-0.3-3.9-0.2c-1.3,3.1-2.3,6-2.3,7.6c0,0-3.1-0.2-3.1-1.8c0-1.1,0.6-3,1.5-5.2
			c-0.5,0.1-0.8,0.2-1.1,0.2c-1.7,0-3.1-1.6-3.1-1.6c0.7-0.7,2.8-0.9,5.2-0.8c2.7-5.9,6.7-12.9,7.3-13.6c0,0,1.9,0.4,1.9,1.4
			c0,0.6-3.2,6.8-5.7,12.5c1.2,0.2,2.5,0.4,3.7,0.7c3-7,7.7-15.4,8.4-16.1c0,0,1.7,0.7,1.7,1.7C516.6,221.7,512.4,229.2,509.7,236.3
			L509.7,236.3z"/>
	</g>
</g>
</svg>
