<?xml version="1.0" encoding="UTF-8"?>
<svg id="Layer_1" data-name="Layer 1" xmlns="http://www.w3.org/2000/svg" version="1.1" viewBox="0 0 279.3 369">
  <defs>
    <style>
      .cls-1 {
        fill: #fff;
        stroke-width: 0px;
      }
    </style>
  </defs>
  <rect class="cls-1" x="210.5" y="173.3" width="14.1" height="14.4"/>
  <rect class="cls-1" x="189.4" y="173.3" width="14.1" height="14.4"/>
  <rect class="cls-1" x="210.5" y="194.8" width="14.1" height="14.4"/>
  <rect class="cls-1" x="189.4" y="194.8" width="14.1" height="14.4"/>
  <path class="cls-1" d="M57,210.6v129.8c0,.7.2,1.2.2,1.9h73.5v-72.3h-23.5v48.6h-26.4v-97.9c0-1.4.3-2.4,1.4-3.4,7.9-7.7,15.6-15.6,23.5-23.5.3-.3.9-.7,1.7-1.4v37.4h23.4v-94.8l-73.7,75.6h0Z"/>
  <path class="cls-1" d="M189.2,217.6v23.4c3.9.2,7.7-.2,11.7.2v77.3h-26.3c0-1-.2-1.9-.2-2.7V125.1c0-1.2.3-2.1,1-2.7,7.9-8.1,15.8-16.3,23.7-24.6.3-.3.9-.7,1.7-1.2v63.2h23.4V38c-.7.7-1.2,1-1.5,1.4-6.2,6.4-12.2,12.7-18.4,19.1-17.3,17.9-34.5,35.7-52,53.6-1.2,1.4-1.7,2.6-1.7,4.3v223.6c0,.7,0,1.4.2,2.2h73.5v-45.5h0v-79.2l-35,.2h0Z"/>
</svg>