<?xml version="1.0" encoding="UTF-8"?>
<svg id="Layer_1" data-name="Layer 1" xmlns="http://www.w3.org/2000/svg" viewBox="0 0 557.96 567.48">
  <defs>
    <style>
      .cls-1 {
        fill: #fff;
        stroke-width: 0px;
      }
    </style>
  </defs>
  <g>
    <rect class="cls-1" x="387.35" y="210.14" width="21.75" height="22.36"/>
    <rect class="cls-1" x="354.53" y="210.14" width="21.75" height="22.36"/>
    <rect class="cls-1" x="387.35" y="243.51" width="21.75" height="22.36"/>
    <rect class="cls-1" x="354.53" y="243.51" width="21.75" height="22.36"/>
    <path class="cls-1" d="M148.85,267.83c.04,67.18.03,134.37.04,201.55,0,1,.17,1.99.27,3.01h114.04v-112.23h-36.54v75.43h-41.15c0-3.25,0-2.29,0-3.21-.01-49.63,0-99.25-.05-148.88,0-2.13.56-3.73,2.12-5.27,12.21-12.11,24.34-24.31,36.51-36.46.59-.59,1.37-1,2.78-2v58.1h36.24v-147.35l-114.26,117.32Z"/>
    <path class="cls-1" d="M354.26,278.79v36.33c6.09.23,12.06-.2,18.26.31v120.14h-40.81c-.07-1.6-.19-2.96-.19-4.33-.02-44.83-.03-89.66-.04-134.49,0-53.84,0-107.69-.04-161.53,0-1.76.47-3.08,1.72-4.36,12.34-12.65,24.61-25.36,36.93-38.03.58-.59,1.36-.99,2.72-1.97v98.2h36.3V0c-1.09,1.01-1.78,1.6-2.41,2.24-9.53,9.83-19.04,19.68-28.57,29.5-26.88,27.72-53.75,55.45-80.69,83.1-1.95,2.01-2.7,4.02-2.7,6.79.09,68.24.1,136.48.11,204.72,0,47.52-.01,95.04-.01,142.57,0,1.13.11,2.25.17,3.49h114.06v-70.77h.04v-122.86h-54.84Z"/>
  </g>
  <g>
    <g>
      <path class="cls-1" d="M49.02,567.48H8.91c-2.44,0-4.53-.88-6.28-2.63-1.75-1.75-2.63-3.85-2.63-6.28v-44.57c0-2.43.88-4.53,2.63-6.28,1.75-1.75,3.85-2.63,6.28-2.63h40.11v12.39H13.37v37.61h35.65v12.39Z"/>
      <path class="cls-1" d="M118.55,567.48h-15.27l-5.61-14.26h-25.1l-5.71,14.26h-15.17l24.96-62.39h16.93l24.96,62.39ZM92.72,540.83l-7.64-19.11-7.55,19.11h15.19Z"/>
      <path class="cls-1" d="M174.7,558.57c0,2.44-.88,4.53-2.63,6.28s-3.85,2.63-6.28,2.63h-44.57v-12.39h40.11v-16.22h-31.2c-2.44,0-4.53-.87-6.28-2.62-1.75-1.75-2.63-3.84-2.63-6.27v-16c0-2.43.87-4.52,2.63-6.27,1.75-1.75,3.85-2.62,6.28-2.62h44.57v12.39h-40.11v9h31.2c2.44,0,4.53.88,6.28,2.63,1.75,1.75,2.63,3.85,2.63,6.28v23.18Z"/>
      <path class="cls-1" d="M244.22,567.48h-15.27l-5.61-14.26h-25.1l-5.71,14.26h-15.17l24.96-62.39h16.93l24.96,62.39ZM218.39,540.83l-7.65-19.11-7.55,19.11h15.19Z"/>
      <path class="cls-1" d="M322.66,567.48h-44.57c-2.44,0-4.53-.88-6.28-2.63-1.75-1.75-2.63-3.85-2.63-6.28v-44.57c0-2.43.87-4.53,2.63-6.28,1.75-1.75,3.85-2.63,6.28-2.63h44.57v12.39h-40.11v37.61h26.74v-16.22h-17.83v-12.39h31.2v41Z"/>
      <path class="cls-1" d="M381.48,567.48h-13.37v-28.61h-26.74v28.61h-13.37v-62.39h44.57c2.43,0,4.53.88,6.28,2.63,1.75,1.75,2.63,3.85,2.63,6.28v9.81c0,2.44-.88,4.53-2.63,6.28s-3.85,2.63-6.28,2.63c2.43,0,4.53.88,6.28,2.63s2.63,3.85,2.63,6.28v25.85ZM368.11,526.48v-9h-26.74v9h26.74Z"/>
      <path class="cls-1" d="M440.31,558.57c0,2.44-.88,4.53-2.63,6.28s-3.85,2.63-6.28,2.63h-35.65c-2.44,0-4.53-.88-6.28-2.63-1.75-1.75-2.63-3.85-2.63-6.28v-44.57c0-2.43.88-4.53,2.63-6.28,1.75-1.75,3.85-2.63,6.28-2.63h35.65c2.43,0,4.53.88,6.28,2.63,1.75,1.75,2.63,3.85,2.63,6.28v44.57ZM426.94,555.09v-37.61h-26.74v37.61h26.74Z"/>
      <path class="cls-1" d="M499.14,558.57c0,2.44-.88,4.53-2.63,6.28s-3.85,2.63-6.28,2.63h-35.65c-2.44,0-4.53-.88-6.28-2.63-1.75-1.75-2.63-3.85-2.63-6.28v-53.48h13.37v50h26.74v-50h13.37v53.48Z"/>
      <path class="cls-1" d="M557.96,529.98c0,2.43-.88,4.52-2.63,6.27-1.75,1.75-3.85,2.62-6.28,2.62h-31.2v28.61h-13.37v-62.39h44.57c2.43,0,4.53.87,6.28,2.62,1.75,1.75,2.63,3.84,2.63,6.27v16ZM544.59,526.48v-9h-26.74v9h26.74Z"/>
    </g>
    <g>
      <path class="cls-1" d="M445.48,498.39c-4.19,0-7.75-1.36-9.02-2.68,0,0,.15-.63.98-.63,1.22,0,2.68,1.17,4,1.17,11.46,0,20.19-22.48,19.46-22.48-4.39,0-9.36,15.41-19.32,15.41-13.17,0,8.24-34.63,18.88-34.63,11.51,0,3.07,14.78-2.29,14.78,0,0-2.24-1.61-1.17-2.73,1.12-1.12,9.27-10.24,4.15-10.24-6.34,0-22.97,31.07-18.1,31.07,6.15,0,12.63-16.05,18.73-16.05,8.49,0-6.24,27.02-16.29,27.02Z"/>
      <path class="cls-1" d="M503.57,472.78c-.59,4.88-7.71,12.97-10.97,12.97-2.05,0-4.93-.98-4.93-3.42,0-3.37,5.27-13.02,4-13.02-3.85,0-9.41,15.41-9.41,15.41,0,0-5.22.2-5.22-1.71,0-3.61,5.56-13.95,4.1-13.95-2.34,0-9.61,15.71-9.61,15.71,0,0-4.83.44-4.83-1.76s4.78-8.49,4.78-15.61c2.63,0,4.58.44,4.58,3.9,0,.49-.1,1.12-.24,1.85,1.9-3.37,4.24-6.44,6.34-6.44,2.73,0,3.8,2.34,3.8,5.02,0,.39-.1.88-.2,1.46,1.71-2.88,4-5.41,6.78-5.41,3.41,0,4.05,3.02,4.05,4.88s-4.2,10.68-3.22,10.68c2.54,0,8.15-6.59,8.78-10.58h1.41Z"/>
      <path class="cls-1" d="M517.34,472c0,1.03-3.46,12.68-7.61,12.68s-5.75-1.41-5.12-1.41c0,0,1.22-.63,2.54-.63s9.46-14.93,7.32-14.93c-3.46,0-12.29,13.76-12.29,20.78,0,0-4.15-1.37-4.15-4.78,0-6.93,13.31-27.26,15.02-28.97,0,0,2,0,2,1.71,0,.93-3.9,7.36-7.41,14.73,2.19-2.39,4.63-4.54,6.29-4.54,3.95,0,3.41,4.39,3.41,5.36Z"/>
      <path class="cls-1" d="M543.14,482.34c1.66.54,2.83,1.07,3.37,1.61,0,0-.54.78-1.76.29-.73-.24-1.41-.49-2.05-.68-1.9,5.02-3.22,9.8-3.22,13.41,0,0-5.17-.29-5.17-2.97s1.37-6.83,3.32-11.66c-2.49-.44-4.58-.49-6.44-.39-2.15,5.12-3.76,9.9-3.76,12.58,0,0-5.17-.29-5.17-2.97,0-1.81.98-4.93,2.49-8.54-.78.15-1.37.29-1.85.29-2.78,0-5.17-2.63-5.17-2.63,1.22-1.22,4.58-1.56,8.63-1.37,4.44-9.76,11.02-21.27,12.1-22.39,0,0,3.07.73,3.07,2.39,0,1.02-5.32,11.12-9.41,20.53,2.05.29,4.15.68,6.05,1.12,4.88-11.51,12.63-25.36,13.75-26.49,0,0,2.73,1.07,2.73,2.73,0,1.12-7.02,13.46-11.51,25.12Z"/>
    </g>
  </g>
</svg>