<?xml version="1.0" encoding="UTF-8"?>
<svg id="Layer_1" data-name="Layer 1" xmlns="http://www.w3.org/2000/svg" viewBox="0 0 558.64 568.17">
  <defs>
    <style>
      .cls-1 {
        fill: #1c3661;
      }

      .cls-1, .cls-2, .cls-3 {
        stroke-width: 0px;
      }

      .cls-2 {
        fill: #70b865;
      }

      .cls-3 {
        fill: #e53225;
      }
    </style>
  </defs>
  <g>
    <rect class="cls-3" x="387.83" y="210.4" width="21.77" height="22.39"/>
    <rect class="cls-3" x="354.96" y="210.4" width="21.77" height="22.39"/>
    <rect class="cls-3" x="387.83" y="243.81" width="21.77" height="22.39"/>
    <rect class="cls-3" x="354.96" y="243.81" width="21.77" height="22.39"/>
    <path class="cls-2" d="M149.03,268.16c.04,67.26.03,134.53.04,201.79,0,1,.17,1.99.27,3.02h114.18v-112.36h-36.59v75.52h-41.2c0-3.26,0-2.3,0-3.22-.01-49.69,0-99.37-.05-149.06,0-2.13.56-3.73,2.12-5.28,12.23-12.13,24.37-24.34,36.55-36.51.59-.59,1.37-1,2.78-2.01v58.17h36.29v-147.53l-114.4,117.46Z"/>
    <path class="cls-1" d="M354.69,279.13v36.37c6.09.23,12.07-.2,18.29.31v120.28h-40.86c-.07-1.6-.19-2.97-.19-4.34-.02-44.88-.03-89.77-.04-134.65,0-53.91,0-107.82-.04-161.73,0-1.76.47-3.09,1.72-4.37,12.35-12.67,24.64-25.39,36.97-38.08.58-.59,1.36-1,2.72-1.98v98.32h36.34V0c-1.09,1.01-1.78,1.6-2.41,2.25-9.54,9.84-19.06,19.7-28.61,29.54-26.91,27.75-53.81,55.52-80.79,83.2-1.96,2.01-2.7,4.03-2.7,6.8.09,68.32.1,136.65.11,204.97,0,47.58-.01,95.16-.01,142.74,0,1.13.11,2.25.17,3.5h114.2v-70.85h.04v-123.01h-54.91Z"/>
  </g>
  <g>
    <g>
      <path class="cls-1" d="M49.08,568.17H8.92c-2.44,0-4.54-.88-6.29-2.63-1.76-1.75-2.63-3.85-2.63-6.29v-44.62c0-2.44.88-4.54,2.63-6.29,1.75-1.76,3.85-2.63,6.29-2.63h40.16v12.4H13.39v37.66h35.7v12.4Z"/>
      <path class="cls-1" d="M118.69,568.17h-15.28l-5.62-14.28h-25.14l-5.71,14.28h-15.19l24.99-62.47h16.96l24.99,62.47ZM92.83,541.49l-7.65-19.13-7.56,19.13h15.21Z"/>
      <path class="cls-1" d="M174.91,559.25c0,2.44-.88,4.54-2.63,6.29s-3.85,2.63-6.29,2.63h-44.62v-12.4h40.16v-16.24h-31.23c-2.44,0-4.54-.87-6.29-2.62-1.76-1.75-2.63-3.84-2.63-6.28v-16.02c0-2.43.88-4.52,2.63-6.27,1.75-1.75,3.85-2.63,6.29-2.63h44.62v12.4h-40.16v9.01h31.23c2.44,0,4.54.88,6.29,2.63,1.75,1.76,2.63,3.85,2.63,6.29v23.2Z"/>
      <path class="cls-1" d="M244.52,568.17h-15.28l-5.62-14.28h-25.14l-5.71,14.28h-15.19l24.99-62.47h16.95l24.99,62.47ZM218.66,541.49l-7.65-19.13-7.56,19.13h15.21Z"/>
      <path class="cls-1" d="M323.05,568.17h-44.62c-2.44,0-4.54-.88-6.29-2.63-1.76-1.75-2.63-3.85-2.63-6.29v-44.62c0-2.44.88-4.54,2.63-6.29,1.75-1.76,3.85-2.63,6.29-2.63h44.62v12.4h-40.16v37.66h26.77v-16.24h-17.85v-12.4h31.23v41.05Z"/>
      <path class="cls-1" d="M381.95,568.17h-13.39v-28.65h-26.77v28.65h-13.39v-62.47h44.62c2.44,0,4.54.88,6.29,2.63,1.75,1.75,2.63,3.85,2.63,6.29v9.82c0,2.44-.88,4.54-2.63,6.29s-3.85,2.63-6.29,2.63c2.44,0,4.54.88,6.29,2.63,1.75,1.75,2.63,3.85,2.63,6.29v25.88ZM368.56,527.12v-9.01h-26.77v9.01h26.77Z"/>
      <path class="cls-1" d="M440.85,559.25c0,2.44-.88,4.54-2.63,6.29s-3.85,2.63-6.29,2.63h-35.7c-2.44,0-4.54-.88-6.29-2.63-1.76-1.75-2.63-3.85-2.63-6.29v-44.62c0-2.44.88-4.54,2.63-6.29,1.75-1.76,3.85-2.63,6.29-2.63h35.7c2.44,0,4.54.88,6.29,2.63,1.75,1.75,2.63,3.85,2.63,6.29v44.62ZM427.46,555.77v-37.66h-26.77v37.66h26.77Z"/>
      <path class="cls-1" d="M499.75,559.25c0,2.44-.88,4.54-2.63,6.29s-3.85,2.63-6.29,2.63h-35.7c-2.44,0-4.54-.88-6.29-2.63-1.76-1.75-2.63-3.85-2.63-6.29v-53.55h13.39v50.06h26.77v-50.06h13.39v53.55Z"/>
      <path class="cls-1" d="M558.64,530.63c0,2.43-.88,4.53-2.63,6.28-1.76,1.75-3.85,2.62-6.29,2.62h-31.24v28.65h-13.39v-62.47h44.62c2.44,0,4.54.88,6.29,2.63,1.75,1.75,2.63,3.84,2.63,6.27v16.02ZM545.26,527.12v-9.01h-26.77v9.01h26.77Z"/>
    </g>
    <g>
      <path class="cls-2" d="M446.02,498.99c-4.2,0-7.76-1.37-9.03-2.69,0,0,.15-.64.98-.64,1.22,0,2.69,1.17,4,1.17,11.48,0,20.22-22.51,19.49-22.51-4.4,0-9.38,15.43-19.34,15.43-13.19,0,8.25-34.67,18.9-34.67,11.52,0,3.08,14.8-2.3,14.8,0,0-2.25-1.61-1.17-2.73,1.12-1.12,9.28-10.26,4.15-10.26-6.35,0-23,31.11-18.12,31.11,6.15,0,12.65-16.07,18.75-16.07,8.5,0-6.25,27.05-16.31,27.05Z"/>
      <path class="cls-2" d="M504.19,473.36c-.59,4.88-7.72,12.99-10.99,12.99-2.05,0-4.93-.98-4.93-3.42,0-3.37,5.27-13.04,4-13.04-3.86,0-9.42,15.43-9.42,15.43,0,0-5.23.2-5.23-1.71,0-3.61,5.57-13.97,4.1-13.97-2.34,0-9.62,15.73-9.62,15.73,0,0-4.83.44-4.83-1.76s4.79-8.5,4.79-15.63c2.64,0,4.59.44,4.59,3.91,0,.49-.1,1.12-.24,1.85,1.9-3.37,4.25-6.45,6.35-6.45,2.73,0,3.81,2.34,3.81,5.03,0,.39-.1.88-.2,1.46,1.71-2.88,4-5.42,6.79-5.42,3.42,0,4.05,3.03,4.05,4.88s-4.2,10.7-3.22,10.7c2.54,0,8.16-6.59,8.79-10.6h1.42Z"/>
      <path class="cls-2" d="M517.97,472.58c0,1.03-3.47,12.7-7.62,12.7s-5.76-1.42-5.13-1.42c0,0,1.22-.63,2.54-.63s9.47-14.94,7.32-14.94c-3.47,0-12.31,13.77-12.31,20.8,0,0-4.15-1.37-4.15-4.79,0-6.93,13.33-27.3,15.04-29.01,0,0,2,0,2,1.71,0,.93-3.91,7.37-7.42,14.75,2.2-2.39,4.64-4.54,6.3-4.54,3.95,0,3.42,4.39,3.42,5.37Z"/>
      <path class="cls-2" d="M543.81,482.93c1.66.54,2.83,1.08,3.37,1.61,0,0-.54.78-1.76.29-.73-.24-1.41-.49-2.05-.68-1.9,5.03-3.22,9.81-3.22,13.43,0,0-5.18-.29-5.18-2.98s1.37-6.84,3.32-11.67c-2.49-.44-4.59-.49-6.45-.39-2.15,5.13-3.76,9.91-3.76,12.6,0,0-5.18-.29-5.18-2.98,0-1.81.98-4.93,2.49-8.55-.78.15-1.37.29-1.86.29-2.78,0-5.18-2.64-5.18-2.64,1.22-1.22,4.59-1.56,8.64-1.37,4.44-9.77,11.04-21.29,12.11-22.41,0,0,3.08.73,3.08,2.39,0,1.03-5.32,11.13-9.42,20.56,2.05.29,4.15.68,6.05,1.12,4.88-11.52,12.65-25.39,13.77-26.52,0,0,2.74,1.08,2.74,2.74,0,1.12-7.03,13.48-11.52,25.15Z"/>
    </g>
  </g>
</svg>