<?xml version="1.0" encoding="UTF-8"?>
<svg xmlns="http://www.w3.org/2000/svg" version="1.1" viewBox="0 0 57 22">
  <defs>
    <style>
      .cls-1 {
        fill: #1c3661;
      }

      .cls-1, .cls-2, .cls-3, .cls-4 {
        stroke-width: 0px;
      }

      .cls-2 {
        fill: #70b865;
      }

      .cls-3 {
        fill: #e53225;
      }

      .cls-4, .cls-5 {
        fill: #1d1d1b;
      }

      .cls-6, .cls-7 {
        fill: none;
        stroke: #1d1d1b;
        stroke-miterlimit: 10;
      }

      .cls-5 {
        font-family: MyriadPro-Regular, 'Myriad Pro';
        font-size: 14px;
      }

      .cls-7 {
        stroke-width: .5px;
      }
    </style>
  </defs>
  <g id="Layer_1" data-name="Layer 1">
    <g>
      <rect class="cls-3" x="11.5" y="10" width="1" height="1"/>
      <rect class="cls-3" x="10" y="10" width="1" height="1"/>
      <rect class="cls-3" x="11.5" y="11.5" width="1" height="1"/>
      <rect class="cls-3" x="10" y="11.5" width="1" height="1"/>
      <path class="cls-2" d="M1,12.6v8.9s0,0,0,.1h5v-5h-1.6v3.3h-1.8v-6.7c0,0,0-.2,0-.2.5-.5,1.1-1.1,1.6-1.6,0,0,0,0,.1,0v2.6h1.6v-6.5L1,12.6h0Z"/>
      <path class="cls-1" d="M10,13v1.6c.3,0,.5,0,.8,0v5.3h-1.8c0,0,0-.1,0-.2V6.7c0,0,0-.1,0-.2.5-.6,1.1-1.1,1.6-1.7,0,0,0,0,.1,0v4.3h1.6V.7s0,0-.1,0c-.4.4-.8.9-1.3,1.3-1.2,1.2-2.4,2.4-3.6,3.7,0,0-.1.2-.1.3v15.3s0,0,0,.2h5v-3.1h0v-5.4h-2.4Z"/>
    </g>
    <g>
      <g>
        <path class="cls-1" d="M18.9,15.2h-2.9c-.2,0-.3,0-.4-.2-.1-.1-.2-.3-.2-.4v-3.2c0-.2,0-.3.2-.4.1-.1.3-.2.4-.2h2.9v.9h-2.5v2.7h2.6v.9h0Z"/>
        <path class="cls-1" d="M23.9,15.2h-1.1l-.4-1h-1.8l-.4,1h-1.1l1.8-4.5h1.2l1.8,4.5ZM22,13.3l-.5-1.4-.5,1.4h1.1Z"/>
        <path class="cls-1" d="M27.9,14.6c0,.2,0,.3-.2.4s-.3.2-.4.2h-3.2v-.9h2.9v-1.2h-2.2c-.2,0-.3,0-.4-.2-.1-.1-.2-.3-.2-.4v-1.1c0-.2,0-.3.2-.4.1-.1.3-.2.4-.2h3.2v.9h-2.9v.6h2.2c.2,0,.3,0,.4.2.1.1.2.3.2.4v1.7h0Z"/>
        <path class="cls-1" d="M32.9,15.2h-1.1l-.4-1h-1.8l-.4,1h-1.1l1.8-4.5h1.2l1.8,4.5h0ZM31,13.3l-.5-1.4-.5,1.4h1.1Z"/>
        <path class="cls-1" d="M38.5,15.2h-3.2c-.2,0-.3,0-.4-.2-.1-.1-.2-.3-.2-.4v-3.2c0-.2,0-.3.2-.4.1-.1.3-.2.4-.2h3.2v.9h-2.9v2.7h1.9v-1.2h-1.3v-.9h2.2v2.9h0Z"/>
        <path class="cls-1" d="M42.7,15.2h-1v-2h-1.9v2h-1v-4.5h3.2c.2,0,.3,0,.4.2s.2.3.2.4v.7c0,.2,0,.3-.2.4s-.3.2-.4.2c.2,0,.3,0,.4.2s.2.3.2.4v1.8h0ZM41.7,12.3v-.6h-1.9v.6h1.9Z"/>
        <path class="cls-1" d="M46.9,14.6c0,.2,0,.3-.2.4s-.3.2-.4.2h-2.6c-.2,0-.3,0-.4-.2-.1-.1-.2-.3-.2-.4v-3.2c0-.2,0-.3.2-.4.1-.1.3-.2.4-.2h2.6c.2,0,.3,0,.4.2s.2.3.2.4v3.2ZM45.9,14.3v-2.7h-1.9v2.7h1.9Z"/>
        <path class="cls-1" d="M51.1,14.6c0,.2,0,.3-.2.4s-.3.2-.4.2h-2.6c-.2,0-.3,0-.4-.2-.1-.1-.2-.3-.2-.4v-3.8h1v3.6h1.9v-3.6h1v3.8h0Z"/>
        <path class="cls-1" d="M55.3,12.5c0,.2,0,.3-.2.4-.1.1-.3.2-.4.2h-2.2v2h-1v-4.5h3.2c.2,0,.3,0,.4.2s.2.3.2.4v1.2h0ZM54.3,12.3v-.6h-1.9v.6h1.9Z"/>
      </g>
      <g>
        <path class="cls-2" d="M47.2,10.3c-.3,0-.6,0-.6-.2,0,0,0,0,0,0s.2,0,.3,0c.8,0,1.4-1.6,1.4-1.6-.3,0-.7,1.1-1.4,1.1s.6-2.5,1.4-2.5.2,1.1-.2,1.1c0,0-.2-.1,0-.2,0,0,.7-.7.3-.7s-1.6,2.2-1.3,2.2.9-1.1,1.3-1.1c.6,0-.4,1.9-1.2,1.9h0Z"/>
        <path class="cls-2" d="M51.4,8.4c0,.4-.6.9-.8.9s-.4,0-.4-.2.4-.9.3-.9c-.3,0-.7,1.1-.7,1.1,0,0-.4,0-.4-.1,0-.3.4-1,.3-1-.2,0-.7,1.1-.7,1.1,0,0-.3,0-.3-.1s.3-.6.3-1.1c.2,0,.3,0,.3.3s0,0,0,.1c.1-.2.3-.5.5-.5s.3.2.3.4,0,0,0,.1c.1-.2.3-.4.5-.4s.3.2.3.4-.3.8-.2.8c.2,0,.6-.5.6-.8h0Z"/>
        <path class="cls-2" d="M52.4,8.4c0,0-.2.9-.5.9s-.4-.1-.4-.1c0,0,0,0,.2,0s.7-1.1.5-1.1c-.2,0-.9,1-.9,1.5,0,0-.3,0-.3-.3,0-.5,1-2,1.1-2.1,0,0,.1,0,.1.1s-.3.5-.5,1c.2-.2.3-.3.4-.3.3,0,.3.3.3.4h0Z"/>
        <path class="cls-2" d="M54.2,9.1c.1,0,.2,0,.2.1,0,0,0,0-.1,0,0,0-.1,0-.1,0-.1.4-.2.7-.2,1,0,0-.4,0-.4-.2s0-.5.2-.8c-.2,0-.3,0-.5,0-.2.4-.3.7-.3.9,0,0-.4,0-.4-.2s0-.4.2-.6c0,0,0,0-.1,0-.2,0-.4-.2-.4-.2,0,0,.3-.1.6,0,.3-.7.8-1.5.9-1.6,0,0,.2,0,.2.2s-.4.8-.7,1.5c.1,0,.3,0,.4,0,.4-.8.9-1.8,1-1.9,0,0,.2,0,.2.2,0,0-.5,1-.8,1.8h0Z"/>
      </g>
    </g>
  </g>
  <g id="Dimensions">
    <g id="Manual_Dimension" data-name="Manual Dimension">
      <line class="cls-7" x1="-430" y1="22" x2="-453.7" y2="22"/>
      <line class="cls-7" x1="-430" x2="-453.7"/>
      <text class="cls-5" transform="translate(-453.7 29.9) rotate(-90)"><tspan x="0" y="0" xml:space="preserve"> 22 px </tspan></text>
      <g>
        <line class="cls-6" x1="-444.7" y1="7.2" x2="-444.7" y2="14.8"/>
        <polygon class="cls-4" points="-449.7 8.6 -444.7 0 -439.7 8.6 -449.7 8.6"/>
        <polygon class="cls-4" points="-449.7 13.4 -444.7 22 -439.7 13.4 -449.7 13.4"/>
      </g>
    </g>
  </g>
</svg>