<?xml version="1.0" ?><svg id="Layer_1" style="enable-background:new 0 0 512 512;" version="1.1" viewBox="0 0 512 512" xml:space="preserve" xmlns="http://www.w3.org/2000/svg" xmlns:xlink="http://www.w3.org/1999/xlink"><style type="text/css">
	.st0{fill:#EDE6DA;}
	.st1{fill:#837D6E;}
	.st2{fill:#514A3D;}
	.st3{fill:#FFFFFF;}
</style><g id="XMLID_171_"><g id="XMLID_98_"><polygon class="st0" id="XMLID_102_" points="330.7,6 87.9,6 87.9,506 449.2,506 449.2,122.8   "/><polygon class="st1" id="XMLID_101_" points="330.7,6 449.2,122.8 330.7,122.8   "/><rect class="st1" height="156.1" id="XMLID_100_" width="329" x="62.8" y="298.8"/><polygon class="st2" id="XMLID_99_" points="62.8,454.9 87.9,476.1 87.9,454.9   "/></g><g id="XMLID_3110_"><path class="st3" d="M196.3,377.6c0,8.3-1.9,14.9-5.6,19.9c-3.7,5-9,7.5-15.8,7.5c-2.6,0-5-0.5-7.1-1.5    c-2.1-1-3.8-2.5-5.4-4.4v26.1h-17.2v-76.3h16.2l0.5,6c1.5-2.2,3.4-4,5.5-5.2c2.1-1.2,4.6-1.8,7.3-1.8c6.8,0,12.1,2.6,15.9,7.9    c3.8,5.3,5.6,12.2,5.6,20.8V377.6z M179.1,376.6c0-4.7-0.7-8.4-2-11.2c-1.4-2.8-3.5-4.2-6.5-4.2c-1.9,0-3.6,0.4-4.9,1.1    c-1.3,0.7-2.4,1.7-3.2,3.1v23c0.8,1.2,1.9,2.1,3.2,2.6c1.3,0.6,3,0.9,5,0.9c3,0,5.2-1.2,6.5-3.7c1.3-2.5,2-6,2-10.5V376.6z" id="XMLID_2976_"/><path class="st3" d="M262.2,377.6c0,8.3-1.9,14.9-5.6,19.9c-3.7,5-9,7.5-15.8,7.5c-2.6,0-5-0.5-7.1-1.5    c-2.1-1-3.8-2.5-5.4-4.4v26.1h-17.2v-76.3h16.2l0.5,6c1.5-2.2,3.4-4,5.5-5.2c2.1-1.2,4.6-1.8,7.3-1.8c6.8,0,12.1,2.6,15.9,7.9    c3.8,5.3,5.6,12.2,5.6,20.8V377.6z M245,376.6c0-4.7-0.7-8.4-2-11.2c-1.4-2.8-3.5-4.2-6.5-4.2c-1.9,0-3.6,0.4-4.9,1.1    c-1.3,0.7-2.4,1.7-3.2,3.1v23c0.8,1.2,1.9,2.1,3.2,2.6c1.3,0.6,3,0.9,5,0.9c3,0,5.2-1.2,6.5-3.7c1.3-2.5,2-6,2-10.5V376.6z" id="XMLID_2979_"/><path class="st3" d="M296.9,335.2v13.7h8.7v11.9h-8.7v25.3c0,2,0.4,3.4,1.2,4.3c0.8,0.9,1.9,1.3,3.2,1.3    c0.9,0,1.6,0,2.1-0.1c0.5-0.1,1.2-0.2,2-0.4l1.2,12.7c-1.7,0.4-3.3,0.8-4.7,0.9c-1.4,0.2-3,0.3-4.9,0.3c-5.7,0-10-1.5-12.9-4.5    c-2.9-3-4.4-7.8-4.4-14.4v-25.4H272v-11.9h7.7v-13.7H296.9z" id="XMLID_2982_"/></g></g></svg>